# xmcd
#
# Track frame offsets: 
#        150
#        16429
#        30660
#        47660
#        65603
#        79568
#        97185
#        117115
#        130006
#        154179
#        172221
#        193281
#        213803
#
# Disc length: 3121 seconds
#
# Revision: 2
# Processed by: cddbd v1.5.2PL0 Copyright (c) Steve Scherf et al.
# Submitted via: ExactAudioCopy v0.95b4
#
DISCID=b10c2f0d
DTITLE=Jasmin Tabatabai - I Ran
DYEAR=2007
DGENRE=Blues
TTITLE0=Let's Stay Together (Album Version)
TTITLE1=Until The End
TTITLE2=Inspiration
TTITLE3=Tomorrow I´ll Be Gone
TTITLE4=Anymore
TTITLE5=On My Way
TTITLE6=Love =Heartache
TTITLE7=You In My Dream
TTITLE8=All Can Come Close
TTITLE9=Toi
TTITLE10=Move On
TTITLE11=I Ran
TTITLE12=Let Yourself Go Wild
EXTD=
EXTT0=
EXTT1=
EXTT2=
EXTT3=
EXTT4=
EXTT5=
EXTT6=
EXTT7=
EXTT8=
EXTT9=
EXTT10=
EXTT11=
EXTT12=
PLAYORDER=
